<svg id="svg" xmlns="http://www.w3.org/2000/svg" xmlns:xlink="http://www.w3.org/1999/xlink" width="400" height="225.35211267605635" viewBox="0, 0, 400,225.35211267605635"><g id="svgg"><path id="path0" d="M16.227 51.201 C 16.307 51.281,18.275 52.172,20.599 53.181 C 58.046 69.446,73.822 91.036,68.800 119.150 C 68.071 123.233,67.385 122.810,74.120 122.436 C 142.273 118.651,180.350 134.600,194.569 172.887 C 196.255 177.427,195.987 177.411,197.530 173.063 C 202.533 158.959,211.662 147.286,224.301 138.832 C 232.827 133.129,243.224 129.017,257.570 125.673 C 259.897 125.131,269.027 123.652,271.479 123.421 C 272.738 123.302,274.877 123.059,276.232 122.881 C 282.622 122.041,297.627 121.744,310.652 122.199 C 317.770 122.448,323.687 122.557,323.801 122.443 C 323.916 122.328,323.718 120.837,323.361 119.128 C 321.850 111.893,322.500 101.483,324.906 94.366 C 330.486 77.866,346.433 63.832,371.786 53.110 C 373.651 52.321,375.327 51.537,375.511 51.366 C 375.703 51.188,350.581 51.056,316.274 51.056 L 256.704 51.056 256.491 52.025 C 253.645 64.985,249.521 71.466,241.774 75.150 C 235.323 78.219,215.531 80.681,211.386 78.931 C 209.589 78.172,208.936 75.664,208.622 68.310 C 208.227 59.067,207.217 53.542,206.579 57.130 C 205.805 61.475,203.998 67.963,203.389 68.584 C 203.039 68.941,202.554 68.950,201.051 68.628 C 199.145 68.219,191.091 68.369,189.565 68.842 C 188.613 69.137,187.672 66.615,186.085 59.507 C 185.236 55.705,185.230 55.691,184.827 56.410 C 184.463 57.058,184.032 61.183,183.453 69.548 C 182.908 77.423,182.496 78.498,179.752 79.189 C 174.232 80.579,156.589 78.082,150.176 75.003 C 142.937 71.528,138.432 64.612,135.896 53.081 L 135.451 51.056 75.765 51.056 C 42.938 51.056,16.146 51.122,16.227 51.201 " stroke="none" fill="#000000" fill-rule="evenodd"></path></g></svg>